<?xml version="1.0" encoding="UTF-8" standalone="no"?>
<svg
   width="102"
   height="40"
   viewBox="0 0 102 40"
   version="1.1"
   id="svg1"
   xmlns="http://www.w3.org/2000/svg"
   xmlns:svg="http://www.w3.org/2000/svg">
  <!-- Generator: sketchtool 52.6 (67491) - http://www.bohemiancoding.com/sketch -->
  <title
     id="title1">485BBA2E-2EBD-4494-89B9-99FE61D4B503</title>
  <desc
     id="desc1">Created with sketchtool.</desc>
  <defs
     id="defs1" />
  <g
     id="Group-14"
     transform="translate(0,-1)">
    <path
       d="m 33.45132,7.4200262 c 0,-0.4957776 -0.303679,-0.8837046 -0.911037,-1.1629453 C 31.932925,5.9778403 31.174137,5.7688279 30.262282,5.6292076 29.352064,5.4895872 28.356718,5.4193591 27.279517,5.4193591 c -1.078019,0 -2.102833,0.016721 -3.074442,0.046819 -0.941322,1.4580707 -2.02016,3.3341664 -3.234057,5.6291229 -1.213897,2.295793 -2.413879,4.792237 -3.598308,7.49017 2.186324,-0.372042 4.251504,-0.984031 6.194722,-1.837638 1.943217,-0.851934 3.651513,-1.814228 5.124887,-2.884371 1.471738,-1.069308 2.633248,-2.170385 3.483713,-3.302397 C 33.025678,9.4282177 33.45132,8.3814834 33.45132,7.4200262 M 18.056192,24.959514 c 0.728502,1.147897 1.609252,2.310006 2.642252,3.488 1.03218,1.179666 2.231344,2.240613 3.597489,3.187858 1.366146,0.945572 2.90746,1.72059 4.623122,2.32589 1.715663,0.604464 3.635962,0.907114 5.761714,0.907114 -0.181716,0.960621 -0.584439,1.867735 -1.20653,2.721342 -0.62291,0.851935 -1.411984,1.495693 -2.368041,1.931275 -0.956875,0.433074 -2.065998,0.572694 -3.325734,0.418025 -1.260553,-0.155505 -2.596413,-0.752445 -4.007579,-1.790819 -1.412802,-1.03921 -2.892725,-2.605131 -4.441406,-4.698599 -1.54868,-2.093469 -3.096542,-4.862466 -4.646041,-8.304483 -0.546786,1.427137 -1.032181,2.838389 -1.457004,4.233756 -0.42646,1.395367 -0.77434,2.728031 -1.047733,4.000498 -0.273393,1.270796 -0.463294,2.465511 -0.569704,3.582474 -0.106411,1.116126 -0.09904,2.108517 0.02374,2.977173 -0.57789,0 -1.2008,-0.08611 -1.86873,-0.255831 C 9.0980742,39.512633 8.4751642,39.217507 7.898911,38.799482 7.3218392,38.380621 6.843811,37.82214 6.4640078,37.124038 6.0842046,36.426773 5.8951215,35.565642 5.8951215,34.542317 c 0,-1.396203 0.3110457,-3.069975 0.9339558,-5.023823 0.621273,-1.953849 1.4185323,-4.032268 2.3909596,-6.233587 -0.8504646,-0.589416 -1.5183944,-1.34186 -2.004608,-2.257335 -0.4862137,-0.913802 -0.7276834,-1.99147 -0.7276834,-3.233004 1.5773294,0.527547 3.2332388,0.868655 4.9644535,1.024161 0.667112,-1.303402 1.411984,-2.590083 2.232163,-3.861714 0.81936,-1.271632 1.639539,-2.496445 2.458898,-3.675275 0.81936,-1.177994 1.623987,-2.2640227 2.413879,-3.2564138 0.789893,-0.9923911 1.48729,-1.8610468 2.095466,-2.6059671 -1.700929,0.093637 -3.537736,0.3887631 -5.511239,0.8845406 C 13.167044,6.8005133 11.269665,7.5061393 9.4475914,8.4199417 7.6255181,9.3354162 5.9933465,10.452379 4.5510764,11.769993 3.1096249,13.088444 2.0995448,14.600858 1.522473,16.306399 0.33804356,14.258913 -0.15553694,12.46057 0.04255009,10.909698 0.24063712,9.3588256 0.88482925,8.0178018 1.9784006,6.8849543 3.0711535,5.753779 4.4986898,4.8082067 6.2593724,4.0474014 8.0200551,3.2882682 9.8650476,2.6829682 11.793531,2.2331734 13.721196,1.7842147 15.619394,1.4656797 17.486487,1.2792406 19.354399,1.0936376 20.955466,1 22.292144,1 c 1.730397,0 3.363387,0.093638 4.896515,0.2792406 1.533128,0.1864391 2.876355,0.5350719 4.030498,1.0467343 1.154143,0.5124985 2.073365,1.225649 2.756029,2.1402874 C 34.658668,5.3817368 35,6.5831403 35,8.0713089 c 0,2.2330891 -0.508314,4.3265571 -1.525761,6.2804061 -1.018266,1.954684 -2.338573,3.676111 -3.96256,5.164279 -1.624804,1.489005 -3.446877,2.706293 -5.465401,3.651866 -2.02016,0.946408 -4.015764,1.543347 -5.990086,1.791654"
       id="Fill-1"
       fill="#fefefe" />
    <path
       d="m 50.50553,24.375857 c -0.574055,0.574351 -1.140375,1.140556 -1.698102,1.700244 -0.557727,0.558873 -1.068189,1.050127 -1.529667,1.473762 -0.462337,0.422821 -0.853348,0.769876 -1.171312,1.041981 C 45.787625,28.863948 45.580519,29 45.48427,29 c -0.44601,0 -0.876551,-0.0831 -1.290764,-0.249293 -0.414213,-0.166196 -0.79663,-0.378013 -1.148109,-0.634639 -0.35062,-0.256625 -0.629054,-0.544208 -0.836161,-0.861935 -0.207966,-0.316912 -0.311089,-0.626491 -0.311089,-0.928739 0,-0.453779 0.135779,-0.929554 0.406479,-1.42814 0.26984,-0.498586 0.556867,-0.958882 0.861082,-1.383333 0.302496,-0.422006 0.565461,-0.777208 0.788895,-1.064791 0.222575,-0.286768 0.287027,-0.430967 0.191638,-0.430967 -0.09625,0 -0.430541,0.242775 -1.004595,0.725883 -0.574055,0.483922 -1.251234,1.08027 -2.033254,1.789859 -0.781161,0.710404 -1.585526,1.46643 -2.413952,2.267264 C 37.865155,27.602003 37.147586,28.335218 36.542594,29 36.31916,29 35.951353,28.970671 35.44261,28.908756 34.932148,28.848469 34.421686,28.705085 33.912083,28.478603 33.40334,28.252121 32.955612,27.934394 32.573195,27.526238 32.190779,27.118081 32,26.551876 32,25.825993 c 0,-0.633824 0.143514,-1.419993 0.430541,-2.356879 0.286168,-0.936886 0.692647,-1.911248 1.219437,-2.923899 0.525071,-1.011837 1.14725,-2.031821 1.864818,-3.059951 0.716709,-1.027316 1.513339,-1.941391 2.390749,-2.742225 0.875691,-0.800834 1.800366,-1.458283 2.773165,-1.972348 C 41.65065,12.25744 42.646652,12 43.667576,12 c 0.317964,0 0.724443,0.06843 1.219436,0.204486 0.493275,0.136052 0.97194,0.347055 1.434278,0.634638 0.461478,0.286769 0.861082,0.641971 1.195374,1.064791 0.335152,0.423636 0.501868,0.906743 0.501868,1.450952 0,0.483922 -0.03953,0.89941 -0.118592,1.246465 -0.08078,0.34787 -0.152107,0.641971 -0.2157,0.883932 -0.128045,0.302247 -0.239762,0.559687 -0.335152,0.77069 l -1.242639,-0.544208 c 0.158123,-0.514066 0.222575,-0.981694 0.191638,-1.404515 -0.03352,-0.333205 -0.152107,-0.650117 -0.359214,-0.952364 -0.207966,-0.301433 -0.581789,-0.453779 -1.124047,-0.453779 -0.668585,0 -1.346622,0.272104 -2.031535,0.816313 -0.686631,0.544208 -1.348341,1.231801 -1.985129,2.061963 -0.637648,0.832607 -1.22803,1.723871 -1.76857,2.675421 -0.543118,0.95155 -0.989127,1.843629 -1.339747,2.674606 -0.350621,0.830977 -0.581789,1.51857 -0.693507,2.062778 -0.111717,0.543394 -0.05586,0.815499 0.168436,0.815499 0.34976,-0.422821 0.923815,-1.011837 1.721304,-1.767863 0.795771,-0.755212 1.641384,-1.510424 2.534263,-2.26645 0.892019,-0.755212 1.736773,-1.405329 2.534262,-1.949538 0.79663,-0.544208 1.386153,-0.816312 1.769429,-0.816312 0.35062,0 0.684053,0.07658 1.003737,0.227296 0.318823,0.151531 0.605851,0.333206 0.860222,0.544209 0.255231,0.211003 0.455463,0.452964 0.598117,0.725068 0.143514,0.272104 0.2157,0.514065 0.2157,0.725069 0,0.272104 -0.160701,0.657449 -0.478665,1.156035 -0.318824,0.498587 -0.669444,1.012652 -1.051861,1.541381 -0.382416,0.529545 -0.725302,1.012652 -1.028658,1.450952 -0.302495,0.438299 -0.421947,0.717736 -0.358354,0.838309 l 6.837954,-6.664111 H 55 c -1.656853,1.722241 -3.155582,3.264437 -4.49447,4.624144"
       id="Fill-3"
       fill="#fefefe" />
    <path
       d="m 73,20.79863 c -0.06284,0 -0.09301,0.03032 -0.09301,0.09097 l -2.984543,3.010127 c -0.09301,0.09179 -0.310854,0.304045 -0.652711,0.637593 -0.341857,0.336006 -0.785097,0.730199 -1.328884,1.186677 -0.543787,0.455657 -1.165497,0.942457 -1.86513,1.45876 -0.699633,0.517942 -1.436971,0.988351 -2.213689,1.414505 -0.777556,0.425336 -1.570194,0.78265 -2.377914,1.071124 -0.809396,0.289293 -1.601197,0.43353 -2.377915,0.43353 h -0.04692 c -0.902402,0 -1.632198,-0.152432 -2.191067,-0.456477 -0.559706,-0.303225 -1.010488,-0.638413 -1.352345,-1.003103 -0.372858,-0.425335 -0.652711,-0.912134 -0.839559,-1.459579 0.745716,0 1.592817,-0.29585 2.541302,-0.889188 0.947646,-0.593339 1.88859,-1.33747 2.820317,-2.234034 0.933403,-0.896564 1.818208,-1.870163 2.657768,-2.91916 0.839559,-1.048176 1.538355,-2.020956 2.098061,-2.918339 0.559706,-0.895745 0.916645,-1.641515 1.072491,-2.234034 0.155009,-0.593339 0.03016,-0.889188 -0.372858,-0.889188 -0.4357,0 -1.026408,0.288474 -1.771287,0.866241 -0.746554,0.577767 -1.578573,1.344846 -2.495218,2.302874 -0.917483,0.957209 -1.881049,2.036528 -2.890699,3.237136 -1.00965,1.201429 -1.989137,2.440555 -2.936783,3.716561 -0.949323,1.277644 -1.826587,2.531522 -2.634307,3.762454 -0.808558,1.230931 -1.476352,2.333196 -2.005057,3.305976 -0.620872,1.793948 -1.087573,3.450214 -1.398428,4.971258 C 49.050764,38.780718 49.019762,40.02722 49.268614,41 48.584901,41 47.92381,40.954926 47.287019,40.863139 46.650227,40.772171 46.09052,40.596792 45.608737,40.33946 45.126116,40.080489 44.739014,39.715799 44.442403,39.24539 44.147468,38.773342 44,38.172628 44,37.444067 c 0,-0.821167 0.287394,-1.992273 0.862183,-3.512498 0.575626,-1.520224 1.312964,-3.191242 2.215365,-5.015512 0.901563,-1.82427 1.881049,-3.670667 2.935945,-5.54083 1.057409,-1.870164 2.075438,-3.580519 3.054925,-5.130247 0.978648,-1.550547 1.833289,-2.811801 2.563924,-3.784581 C 56.362977,13.487619 56.852301,13 57.100315,13 c 0.124845,0 0.319234,0.06884 0.584005,0.205702 0.263096,0.136861 0.527867,0.304045 0.7918,0.50237 0.263934,0.197507 0.497703,0.425336 0.699633,0.683487 0.20193,0.258971 0.302476,0.509746 0.302476,0.752327 -0.808558,1.21618 -1.653982,2.615114 -2.540464,4.195984 -0.886481,1.58005 -1.779665,3.237136 -2.68039,4.970439 l 1.024732,-1.276825 c 0.311693,-0.516303 0.730635,-1.117837 1.259339,-1.802143 0.527867,-0.683486 1.111034,-1.397296 1.747826,-2.143066 0.63763,-0.744132 1.306261,-1.482527 2.005894,-2.211087 0.698795,-0.7302 1.375806,-1.383364 2.027679,-1.961131 0.652712,-0.577767 1.25934,-1.040801 1.818208,-1.390739 C 64.70076,13.175379 65.166623,13 65.54032,13 c 0.310017,0 0.667793,0.07704 1.071653,0.228648 0.40386,0.152433 0.785097,0.357315 1.142036,0.616286 0.357776,0.258151 0.660252,0.569572 0.909942,0.934262 0.248013,0.36469 0.372858,0.775273 0.372858,1.230931 0,0.517122 -0.124845,1.16291 -0.372858,1.938184 -0.24969,0.775274 -0.583167,1.603817 -1.002947,2.485629 -0.418942,0.881812 -0.901563,1.785752 -1.44535,2.713458 -0.543787,0.927706 -1.126116,1.800503 -1.748664,2.621671 -0.279853,0.395832 -0.310855,0.540888 -0.093,0.43353 0.21785,-0.105719 0.520326,-0.303225 0.909104,-0.593338 0.388778,-0.287655 0.770016,-0.592519 1.142874,-0.911316 0.372858,-0.319616 0.574788,-0.508927 0.60579,-0.570391 l 3.357401,-3.328924 z"
       id="Fill-5"
       fill="#fefefe" />
    <path
       d="m 92,20.79863 c -0.06284,0 -0.09301,0.03032 -0.09301,0.09097 l -2.984543,3.010127 c -0.09301,0.09179 -0.310854,0.304045 -0.652711,0.637593 -0.341857,0.336006 -0.785097,0.730199 -1.328884,1.186677 -0.543787,0.455657 -1.165497,0.942457 -1.86513,1.45876 -0.699633,0.517942 -1.436971,0.988351 -2.213689,1.414505 -0.777556,0.425336 -1.570194,0.78265 -2.377915,1.071124 -0.809395,0.289293 -1.601196,0.43353 -2.377914,0.43353 h -0.04692 c -0.902401,0 -1.632197,-0.152432 -2.191066,-0.456477 -0.559706,-0.303225 -1.010488,-0.638413 -1.352344,-1.003103 -0.372859,-0.425335 -0.652712,-0.912134 -0.83956,-1.459579 0.745716,0 1.592817,-0.29585 2.541302,-0.889188 0.947646,-0.593339 1.88859,-1.33747 2.820317,-2.234034 0.933403,-0.896564 1.818208,-1.870163 2.657768,-2.91916 0.839559,-1.048176 1.538355,-2.020956 2.098061,-2.918339 0.559706,-0.895745 0.916645,-1.641515 1.072491,-2.234034 0.155009,-0.593339 0.03016,-0.889188 -0.372858,-0.889188 -0.4357,0 -1.026408,0.288474 -1.771287,0.866241 -0.746554,0.577767 -1.578573,1.344846 -2.495218,2.302874 -0.917483,0.957209 -1.881049,2.036528 -2.890699,3.237136 -1.00965,1.201429 -1.989137,2.440555 -2.936783,3.716561 -0.949323,1.277644 -1.826587,2.531522 -2.634307,3.762454 -0.808558,1.230931 -1.476352,2.333196 -2.005057,3.305976 -0.620872,1.793948 -1.087573,3.450214 -1.398428,4.971258 C 68.050764,38.780718 68.019762,40.02722 68.268614,41 67.584901,41 66.92381,40.954926 66.287019,40.863139 65.650227,40.772171 65.09052,40.596792 64.608737,40.33946 64.126116,40.080489 63.739014,39.715799 63.442403,39.24539 63.147468,38.773342 63,38.172628 63,37.444067 c 0,-0.821167 0.287394,-1.992273 0.862183,-3.512498 0.575626,-1.520224 1.312964,-3.191242 2.215365,-5.015512 0.901563,-1.82427 1.881049,-3.670667 2.935945,-5.54083 1.057409,-1.870164 2.075438,-3.580519 3.054925,-5.130247 0.978648,-1.550547 1.833289,-2.811801 2.563924,-3.784581 C 75.362977,13.487619 75.852301,13 76.100315,13 c 0.124845,0 0.319234,0.06884 0.584005,0.205702 0.263096,0.136861 0.527867,0.304045 0.7918,0.50237 0.263934,0.197507 0.497703,0.425336 0.699633,0.683487 0.20193,0.258971 0.302476,0.509746 0.302476,0.752327 -0.808557,1.21618 -1.653982,2.615114 -2.540464,4.195984 -0.886481,1.58005 -1.779665,3.237136 -2.68039,4.970439 l 1.024732,-1.276825 c 0.311693,-0.516303 0.730635,-1.117837 1.259339,-1.802143 0.527867,-0.683486 1.111034,-1.397296 1.747826,-2.143066 0.63763,-0.744132 1.306261,-1.482527 2.005894,-2.211087 0.698795,-0.7302 1.375806,-1.383364 2.027679,-1.961131 0.652712,-0.577767 1.25934,-1.040801 1.818208,-1.390739 C 83.70076,13.175379 84.166623,13 84.54032,13 c 0.310017,0 0.667793,0.07704 1.071653,0.228648 0.40386,0.152433 0.785097,0.357315 1.142036,0.616286 0.357776,0.258151 0.660252,0.569572 0.909942,0.934262 0.248013,0.36469 0.372858,0.775273 0.372858,1.230931 0,0.517122 -0.124845,1.16291 -0.372858,1.938184 -0.24969,0.775274 -0.583167,1.603817 -1.002947,2.485629 -0.418942,0.881812 -0.901563,1.785752 -1.44535,2.713458 -0.543787,0.927706 -1.126116,1.800503 -1.748664,2.621671 -0.279853,0.395832 -0.310855,0.540888 -0.093,0.43353 0.21785,-0.105719 0.520326,-0.303225 0.909104,-0.593338 0.388778,-0.287655 0.770016,-0.592519 1.142874,-0.911316 0.372858,-0.319616 0.574788,-0.508927 0.60579,-0.570391 l 3.357401,-3.328924 z"
       id="Fill-7"
       fill="#fefefe" />
    <path
       d="m 99.165668,10.655571 c -0.116791,0 -0.371535,-0.09171 -0.764235,-0.275968 C 98.009518,10.195349 97.601926,9.9887866 97.181009,9.7590888 96.759308,9.5293909 96.380718,9.3153919 96.046806,9.1154391 95.71211,8.9163126 95.545154,8.8014636 95.545154,8.7708924 c 0,-0.030571 0.101898,-0.3296743 0.305694,-0.8964826 0.202229,-0.5676345 0.43581,-1.2418555 0.697609,-2.0234891 0.2618,-0.7816336 0.508707,-1.6095373 0.74072,-2.4820586 C 97.521975,2.4946884 97.667768,1.7056185 97.725771,1 c 0.290018,0 0.682717,0.09254 1.178098,0.2759679 0.493813,0.184254 0.965679,0.4296506 1.417951,0.7361898 0.44992,0.3065392 0.84262,0.6667847 1.17731,1.0807365 C 101.83226,3.5060198 102,3.9588055 102,4.4487724 c 0,0.4907932 -0.12385,1.0881728 -0.36997,1.7929651 -0.24769,0.7056185 -0.53849,1.3872757 -0.87318,2.0457979 -0.33392,0.6601747 -0.65372,1.2178943 -0.95863,1.6781162 -0.305694,0.4602224 -0.517329,0.6899194 -0.632552,0.6899194 z m -0.479704,8.965652 h 2.442416 c -1.425004,1.746695 -2.719892,3.309962 -3.882313,4.688975 -0.494597,0.582507 -0.996249,1.157578 -1.504171,1.724386 -0.50949,0.567635 -0.981356,1.065038 -1.41795,1.494689 -0.43581,0.428824 -0.822238,0.780807 -1.155366,1.056775 C 92.833884,28.862016 92.593248,29 92.449023,29 91.663625,29 90.987179,28.885151 90.420469,28.655453 89.852976,28.425755 89.395219,28.142351 89.046414,27.805241 88.697609,27.46813 88.43581,27.130194 88.261016,26.793083 88.087005,26.455973 88,26.165132 88,25.919736 c 0,-0.857649 0.181065,-1.907814 0.544762,-3.14967 0.363698,-1.241029 0.835564,-2.520892 1.41795,-3.838763 0.580819,-1.317044 1.235317,-2.60517 1.962712,-3.861898 0.725827,-1.256728 1.453222,-2.360599 2.180617,-3.310788 0.348805,0 0.726611,0.06197 1.133419,0.184254 0.407592,0.123111 0.785399,0.283404 1.134203,0.483357 0.349589,0.199126 0.647444,0.43626 0.894351,0.712228 0.246907,0.275968 0.370752,0.566808 0.370752,0.873348 -1.134203,1.593838 -2.086557,3.210812 -2.857063,4.85092 -0.770505,1.639283 -1.351324,3.072828 -1.744023,4.298985 -0.392699,1.225331 -0.567494,2.121813 -0.523599,2.689448 0.04311,0.566808 0.311965,0.574244 0.806562,0.02231 z"
       id="Fill-9"
       fill="#fefefe" />
  </g>
</svg>
