<svg width="300" height="155" viewBox="0 0 300 155" fill="none" xmlns="http://www.w3.org/2000/svg">
<path d="M254.364 59.8345C254.158 59.8129 256.423 54.7252 261.217 56.2888C265.077 57.9066 265.93 58.5002 268.647 60.3531C270.097 61.4443 272.095 62.2577 270.308 67.1426C265.65 79.9203 274.419 82.7843 274.876 99.2436C278.546 97.6477 281.887 92.5809 282.6 88.5276C282.698 87.6593 283.628 87.7653 284.207 88.1901C285.701 89.2914 286.701 90.2877 286.267 91.5376C284.646 96.3168 279.415 103.086 272.388 106.53C257.924 113.359 250.631 105.625 249.817 97.3038C249.697 94.1995 250.26 93.2456 250.26 93.2456C250.761 91.9003 255.773 90.8616 255.458 92.895C254.774 95.9634 253.871 104.672 259.349 104.27C264.246 103.91 261.833 94.5727 260.558 91.1181C256.825 83.1853 255.262 76.1076 255.047 70.3722M255.047 70.3722C252.264 77.5852 246.44 90.4699 238.059 89.8474C238.6 88.5312 238.97 87.1681 239.274 85.7867C248.469 82.896 250.824 69.7528 254.364 59.8345" fill="#E86E5A"/>
<path d="M232.627 89.5403C232.627 89.5403 229.773 104.876 221.89 104.736C212.631 104.36 213.649 73.3629 223.871 65.6853C226.592 64.0216 225.107 60.5254 222.594 59.6329C219.159 58.4016 215.272 60.3817 215.272 60.3817C215.272 60.3817 206.064 63.8773 203.377 81.7996C200.24 101.775 208.478 109.931 218.882 110.075C229.236 110.217 233.942 99.6301 237.36 90.045C239.581 84.3762 239.756 78.2609 240.046 72.2487C240.087 66.7984 238.332 59.32 233.251 59.7475C229.954 60.025 226.823 67.185 226.733 73.1834C226.642 79.1818 227.044 84.8415 232.627 89.5403Z" fill="#E86E5A"/>
<path d="M174.972 59.1425C166.23 60.3805 162.579 70.9729 162.579 70.9729C162.579 70.9729 157.619 81.171 158.58 95.5915C159.67 109.224 172.937 109.126 177.415 105.718C179.373 104.499 182.355 100.633 182.355 100.633C182.081 103.343 181.224 106.054 180.197 108.764C169.799 113.17 160.363 121.658 159.69 131.09C159.185 143.211 173.497 148.617 180.515 139.825C187.525 130.626 192.149 109.818 192.149 109.818C196.579 107.785 200.068 105.1 203.708 102.519C203.819 102.44 204.455 101.941 204.567 101.863C203.931 100.506 203.432 99.1022 203.002 97.6753C202.924 97.7459 202.127 98.4419 202.049 98.5118C199.271 101.007 196.605 103.082 193.326 104.577C196.455 91.4587 199.138 79.5759 200.872 66.7961C201.008 65.3611 200.582 62.07 196.052 60.6818C192.467 59.5831 189.534 59.7739 189.534 59.7739C188.079 59.8307 187.363 60.8014 187.268 61.8863L187.179 65.2344C185.571 62.1144 181.373 58.236 174.972 59.1425ZM182.073 65.732C183.561 66.1595 185.98 70.3083 182.454 85.5934C178.929 100.878 174.473 102.252 173.605 101.995C172.736 101.739 168.816 99.5295 172.419 82.9706C176.022 66.4118 180.585 65.3045 182.073 65.732ZM179.048 113.977C179.101 113.971 178.686 118.094 175.791 126.132C172.895 134.171 169.623 137.374 166.752 136.708C163.333 135.842 162.31 130.347 165.837 123.973C170.551 116.558 178.995 113.983 179.048 113.977Z" fill="#E86E5A"/>
<path d="M117.295 63.571C117.181 67.9903 114.014 88.7001 113.446 95.8643C112.664 103.197 113.757 106.305 119.437 108.053C122.005 108.71 123.251 109.365 123.808 107.31C128.227 90.7697 135.102 71.9272 140.127 67.3685C141.463 66.3493 141.967 66.7733 141.713 69.3798C141.367 73.5263 139.766 80.7932 138.854 87.0181C137.771 93.7327 138.582 102.073 143.389 106.057C152.257 112.632 159.647 105.121 160.613 104.067C160.684 103.99 160.924 103.764 160.924 103.764C159.982 102.49 159.315 101.106 158.837 99.5872C158.792 99.6775 158.624 99.9954 158.574 100.082C156.147 104.37 148.777 104.596 150.531 92.7305C151.404 84.7368 152.183 81.4358 154.314 73.1768C154.802 71.0405 156.419 61.968 147.583 60.3787C141.01 59.2233 138.011 62.3655 136.79 64.1848C134.912 66.4308 131.604 73.6028 129.125 78.2135C129.125 78.2135 131.044 68.2198 130.627 65.7908C130.556 64.1884 129.582 63.0356 128.142 61.9942C124.761 59.6142 119.779 60.3473 118.601 60.836C118.202 61.0018 117.334 61.2835 117.295 63.571Z" fill="#E86E5A"/>
<path d="M101.837 60.3144C100.717 60.2887 99.7103 60.3954 98.9907 60.6724C98.627 60.8124 98.036 61.2259 97.8979 61.9838C97.7531 62.8854 97.7258 65.7506 97.7258 65.7506C97.7258 65.7506 94.8396 60.0592 85.4816 60.3655C75.9505 60.9306 70.912 74.6187 69.1823 85.2725C67.9755 94.2873 67.6289 106.685 79.3711 108.236C88.6857 108.709 90.5752 103.793 94.4288 97.2656C94.4288 97.2656 95.9152 105.559 102.544 107.845C107.499 109.207 112.5 107.147 113.721 106.488C114.107 106.28 114.674 105.845 114.674 105.845C113.957 105.153 113.355 104.309 112.819 101.581C112.819 101.581 107.567 104.899 107.101 99.3443C105.341 82.9394 112.661 68.3398 110.207 63.1371C109.563 61.6644 105.195 60.3912 101.837 60.3144ZM92.7872 66.5783C95.9606 67.7171 95.8842 73.2281 93.933 83.7062C91.9818 94.1842 87.046 103.243 83.8659 102.727C80.6859 102.211 80.3847 93.2054 82.9937 82.659C85.6027 72.1126 89.6138 65.4395 92.7872 66.5783Z" fill="#E86E5A"/>
<path d="M22.4572 50.3737C16.3104 25.3101 46.6262 8.93201 55.4393 29.2096C61.8208 43.4561 53.8576 78.3532 36.3365 70.591L42.4774 39.7534C42.4774 39.7534 43.6279 32.0555 36.7939 31.2092C29.9598 30.3629 28.6532 33.0629 28.6532 33.0629C26.3631 52.6918 24.0639 67.5342 21.1321 88.1888C20.5652 92.1822 20.0438 95.9067 19.5427 99.5415C19.4886 108.49 28.0652 109.591 30.2086 108.211C31.1902 107.564 30.7553 103.188 31.0413 101.128C32.138 93.2252 33.6696 84.9625 35.4302 76.4959C43.4455 88.9486 51.6145 103.516 62.2382 115.871C65.6922 119.575 78.2205 133.888 88.5616 123.033C92.3083 119.015 93.3404 116.059 92.8948 115.424C92.507 114.828 86.4691 116.319 79.4953 112.156C63.9251 102.785 55.1971 90.0138 46.0484 78.3169C64.4946 75.2257 71.2493 60.309 72.7558 47.1429C75.1162 27.5223 63.9925 18.6873 48.3237 15.3688C32.8656 12.9219 15.1978 19.8437 10.5525 35.2398C10.0333 37.0208 9.76044 41.4831 11.8731 44.9837C13.7521 47.8187 17.018 50.7066 22.4572 50.3737Z" fill="#E86E5A"/>
</svg>
