<svg width="40" height="41" viewBox="0 0 40 41" fill="none" xmlns="http://www.w3.org/2000/svg">
<path d="M5 10.5L10 3.83337H30L35 10.5M5 10.5V33.8334C5 34.7174 5.35119 35.5653 5.97631 36.1904C6.60143 36.8155 7.44928 37.1667 8.33333 37.1667H31.6667C32.5507 37.1667 33.3986 36.8155 34.0237 36.1904C34.6488 35.5653 35 34.7174 35 33.8334V10.5M5 10.5H35M26.6667 17.1667C26.6667 18.9348 25.9643 20.6305 24.714 21.8808C23.4638 23.131 21.7681 23.8334 20 23.8334C18.2319 23.8334 16.5362 23.131 15.286 21.8808C14.0357 20.6305 13.3333 18.9348 13.3333 17.1667" stroke="#E86E5A" stroke-width="4" stroke-linecap="round" stroke-linejoin="round"/>
</svg>
